<svg width="177" height="19" viewBox="0 0 177 19" fill="none" xmlns="http://www.w3.org/2000/svg">
<path d="M0.278685 18V0.842845H5.81622C7.03376 0.842845 8.05023 1.06345 8.86564 1.50467C9.68664 1.9403 10.3038 2.54627 10.7171 3.32259C11.1359 4.09332 11.3454 4.97855 11.3454 5.97826C11.3454 6.97798 11.1359 7.86041 10.7171 8.62556C10.3038 9.39071 9.68943 9.9883 8.87402 10.4183C8.05861 10.8484 7.04772 11.0634 5.84136 11.0634H1.12481V9.63086H5.79947C6.69307 9.63086 7.43588 9.48286 8.02789 9.18685C8.62548 8.89085 9.06949 8.46918 9.35991 7.92185C9.65592 7.37452 9.80392 6.72665 9.80392 5.97826C9.80392 5.22987 9.65592 4.57643 9.35991 4.01792C9.06391 3.45384 8.61711 3.01821 8.01951 2.71103C7.4275 2.40386 6.67911 2.25027 5.77434 2.25027H1.84528V18H0.278685ZM7.84358 10.2592L12.0659 18H10.2563L6.07593 10.2592H7.84358ZM15.1613 18V0.842845H25.1138V2.25027H16.7279V8.70933H24.586V10.1168H16.7279V16.5926H25.2814V18H15.1613ZM29.1686 18V0.842845H39.0959V2.25027H30.7351V8.70933H38.3168V10.1168H30.7351V18H29.1686ZM57.0573 9.42142C57.0573 11.2086 56.739 12.7641 56.1023 14.0877C55.4656 15.4058 54.5887 16.4278 53.4717 17.1539C52.3603 17.8743 51.0813 18.2346 49.6348 18.2346C48.1883 18.2346 46.9065 17.8743 45.7895 17.1539C44.6781 16.4278 43.8041 15.4058 43.1674 14.0877C42.5363 12.7641 42.2207 11.2086 42.2207 9.42142C42.2207 7.63422 42.5363 6.08159 43.1674 4.76352C43.8041 3.43988 44.6809 2.41782 45.7979 1.69735C46.9149 0.9713 48.1939 0.608274 49.6348 0.608274C51.0813 0.608274 52.3603 0.9713 53.4717 1.69735C54.5887 2.41782 55.4656 3.43988 56.1023 4.76352C56.739 6.08159 57.0573 7.63422 57.0573 9.42142ZM55.5326 9.42142C55.5326 7.88554 55.2757 6.57027 54.7619 5.47561C54.248 4.37536 53.5471 3.53482 52.6591 2.95398C51.7711 2.37314 50.763 2.08272 49.6348 2.08272C48.5122 2.08272 47.5069 2.37314 46.6189 2.95398C45.7309 3.53482 45.0272 4.37257 44.5078 5.46723C43.994 6.5619 43.7371 7.87996 43.7371 9.42142C43.7371 10.9573 43.994 12.2726 44.5078 13.3672C45.0216 14.4619 45.7225 15.3024 46.6105 15.8889C47.4986 16.4697 48.5067 16.7601 49.6348 16.7601C50.763 16.7601 51.7711 16.4697 52.6591 15.8889C53.5527 15.308 54.2564 14.4703 54.7702 13.3756C55.2841 12.2754 55.5382 10.9573 55.5326 9.42142ZM60.846 18V0.842845H66.3836C67.6011 0.842845 68.6176 1.06345 69.433 1.50467C70.254 1.9403 70.8711 2.54627 71.2844 3.32259C71.7033 4.09332 71.9127 4.97855 71.9127 5.97826C71.9127 6.97798 71.7033 7.86041 71.2844 8.62556C70.8711 9.39071 70.2568 9.9883 69.4414 10.4183C68.626 10.8484 67.6151 11.0634 66.4087 11.0634H61.6922V9.63086H66.3668C67.2604 9.63086 68.0032 9.48286 68.5952 9.18685C69.1928 8.89085 69.6368 8.46918 69.9273 7.92185C70.2233 7.37452 70.3713 6.72665 70.3713 5.97826C70.3713 5.22987 70.2233 4.57643 69.9273 4.01792C69.6313 3.45384 69.1845 3.01821 68.5869 2.71103C67.9949 2.40386 67.2465 2.25027 66.3417 2.25027H62.4126V18H60.846ZM68.4109 10.2592L72.6332 18H70.8237L66.6433 10.2592H68.4109ZM75.7287 0.842845H77.5382L83.7627 15.7883H83.9135L90.138 0.842845H91.9476V18H90.4731V4.15196H90.3391L84.5502 18H83.126L77.3372 4.15196H77.2031V18H75.7287V0.842845ZM96.5343 18H94.8923L101.134 0.842845H102.809L109.05 18H107.408L102.03 2.87858H101.913L96.5343 18ZM97.7155 11.4236H106.227V12.8311H97.7155V11.4236ZM121.307 5.13213C121.212 4.1771 120.79 3.41754 120.042 2.85345C119.293 2.28936 118.352 2.00732 117.218 2.00732C116.42 2.00732 115.716 2.14415 115.107 2.41782C114.504 2.69148 114.029 3.07126 113.683 3.55716C113.342 4.03747 113.172 4.5848 113.172 5.19915C113.172 5.65154 113.27 6.04808 113.465 6.38876C113.661 6.72945 113.923 7.02266 114.253 7.2684C114.588 7.50856 114.956 7.7152 115.359 7.88834C115.766 8.06147 116.177 8.20668 116.59 8.32397L118.4 8.84337C118.947 8.99417 119.494 9.18685 120.042 9.42142C120.589 9.65599 121.089 9.952 121.541 10.3094C121.999 10.6613 122.365 11.0941 122.639 11.608C122.918 12.1162 123.057 12.7277 123.057 13.4426C123.057 14.3586 122.82 15.1824 122.345 15.914C121.871 16.6456 121.189 17.2265 120.301 17.6565C119.413 18.081 118.349 18.2932 117.109 18.2932C115.942 18.2932 114.928 18.1005 114.068 17.7152C113.208 17.3242 112.533 16.7853 112.041 16.0983C111.55 15.4113 111.273 14.6155 111.212 13.7107H112.82C112.876 14.3865 113.099 14.959 113.49 15.4281C113.881 15.8972 114.39 16.2547 115.015 16.5004C115.641 16.7406 116.339 16.8607 117.109 16.8607C117.964 16.8607 118.724 16.7182 119.388 16.4334C120.058 16.143 120.583 15.7409 120.963 15.227C121.348 14.7076 121.541 14.1045 121.541 13.4175C121.541 12.8367 121.39 12.3508 121.089 11.9598C120.787 11.5633 120.365 11.231 119.824 10.9629C119.288 10.6948 118.665 10.4574 117.956 10.2508L115.903 9.64762C114.557 9.24549 113.513 8.68979 112.77 7.98049C112.027 7.27119 111.656 6.36642 111.656 5.26617C111.656 4.34465 111.901 3.53482 112.393 2.83669C112.89 2.13298 113.56 1.58565 114.403 1.1947C115.252 0.798165 116.205 0.599897 117.26 0.599897C118.327 0.599897 119.271 0.795372 120.092 1.18632C120.913 1.57727 121.563 2.11623 122.044 2.80318C122.53 3.48455 122.789 4.26087 122.823 5.13213H121.307ZM133.487 18H131.845L138.087 0.842845H139.762L146.003 18H144.362L138.983 2.87858H138.866L133.487 18ZM134.669 11.4236H143.18V12.8311H134.669V11.4236ZM153.971 18H148.944V0.842845H154.272C155.909 0.842845 157.308 1.18353 158.469 1.8649C159.637 2.54627 160.53 3.52365 161.15 4.79703C161.77 6.07042 162.08 7.59792 162.08 9.37954C162.08 11.1779 161.762 12.7222 161.125 14.0123C160.494 15.2969 159.572 16.2826 158.36 16.9696C157.154 17.6565 155.691 18 153.971 18ZM150.511 16.5926H153.878C155.353 16.5926 156.587 16.3022 157.581 15.7213C158.575 15.1405 159.321 14.3111 159.818 13.2332C160.315 12.1553 160.564 10.8707 160.564 9.37954C160.558 7.89951 160.312 6.62612 159.826 5.55939C159.346 4.49265 158.631 3.67445 157.682 3.10477C156.738 2.5351 155.571 2.25027 154.18 2.25027H150.511V16.5926ZM164.124 2.25027V0.842845H176.565V2.25027H171.128V18H169.561V2.25027H164.124Z" fill="#303030"/>
</svg>
